<?xml version="1.0" encoding="UTF-8" standalone="no"?>
<!-- Created with Inkscape (http://www.inkscape.org/) -->

<svg
   width="16"
   height="16"
   viewBox="0 0 4.2333333 4.2333333"
   version="1.1"
   id="svg1"
   inkscape:version="1.3 (0e150ed6c4, 2023-07-21)"
   sodipodi:docname="StateMachine.svg"
   xmlns:inkscape="http://www.inkscape.org/namespaces/inkscape"
   xmlns:sodipodi="http://sodipodi.sourceforge.net/DTD/sodipodi-0.dtd"
   xmlns:xlink="http://www.w3.org/1999/xlink"
   xmlns="http://www.w3.org/2000/svg"
   xmlns:svg="http://www.w3.org/2000/svg">
  <sodipodi:namedview
     id="namedview1"
     pagecolor="#505050"
     bordercolor="#eeeeee"
     borderopacity="1"
     inkscape:showpageshadow="0"
     inkscape:pageopacity="0"
     inkscape:pagecheckerboard="0"
     inkscape:deskcolor="#d1d1d1"
     inkscape:document-units="mm"
     inkscape:zoom="67.904376"
     inkscape:cx="8.4236102"
     inkscape:cy="7.6062844"
     inkscape:window-width="2560"
     inkscape:window-height="1369"
     inkscape:window-x="2552"
     inkscape:window-y="-8"
     inkscape:window-maximized="1"
     inkscape:current-layer="layer1" />
  <defs
     id="defs1" />
  <g
     inkscape:label="Layer 1"
     inkscape:groupmode="layer"
     id="layer1">
    <g
       id="g6"
       transform="rotate(90,2.1166667,2.1166667)" />
    <g
       id="g49"
       transform="translate(0.04767259,-0.09342858)" />
    <use
       x="0"
       y="0"
       xlink:href="#g49"
       id="use49"
       transform="rotate(90,2.1166667,2.1166667)" />
    <g
       id="g7"
       transform="translate(0,0.02605803)">
      <path
         id="path51"
         style="fill:#4cb161;stroke-width:0.317;stroke-linecap:round;stroke-miterlimit:15"
         d="M 2.7215418,0.47175586 A 0.63121849,0.63121849 0 0 1 2.4904999,1.3340163 0.63121849,0.63121849 0 0 1 1.6282394,1.1029743 0.63121849,0.63121849 0 0 1 1.8592814,0.24071381 0.63121849,0.63121849 0 0 1 2.7215418,0.47175586 Z" />
      <g
         id="path3">
        <path
           style="color:#000000;fill:#4cb161;stroke-linecap:round;stroke-miterlimit:15;-inkscape-stroke:none"
           d="M 2.1896833,0.81481805 3.1520968,2.481767"
           id="path6" />
        <path
           style="color:#000000;fill:#4cb161;stroke-linecap:round;stroke-miterlimit:15;-inkscape-stroke:none"
           d="M 2.1230469,0.70117187 A 0.1322915,0.1322915 0 0 0 2.0742188,0.88085938 L 3.0371094,2.5488281 A 0.1322915,0.1322915 0 0 0 3.21875,2.5957031 0.1322915,0.1322915 0 0 0 3.2675781,2.4160156 L 2.3046875,0.74804687 a 0.1322915,0.1322915 0 0 0 -0.1816406,-0.046875 z"
           id="path7" />
        <g
           id="g2">
          <g
             id="path2">
            <path
               style="color:#000000;fill:#4cb161;fill-rule:evenodd;-inkscape-stroke:none"
               d="M 3.3238442,2.7792423 2.8085944,2.4821151 3.3241494,2.1844592 Z"
               id="path4" />
            <path
               style="color:#000000;fill:#4cb161;fill-rule:evenodd;-inkscape-stroke:none"
               d="M 3.3632813,2.1152344 2.7285156,2.4824219 3.3632813,2.8476563 V 2.7792969 Z M 3.2851563,2.2519531 3.2832031,2.7089844 2.8867188,2.4804688 Z"
               id="path5" />
          </g>
        </g>
      </g>
      <use
         x="0"
         y="0"
         xlink:href="#path51"
         id="use3"
         transform="rotate(120,2.1360747,2.5026128)" />
      <use
         x="0"
         y="0"
         xlink:href="#path3"
         id="use4"
         transform="rotate(120,2.1360747,2.5026128)" />
      <use
         x="0"
         y="0"
         xlink:href="#use3"
         id="use5"
         transform="rotate(120,2.1166669,2.5362284)" />
      <use
         x="0"
         y="0"
         xlink:href="#use4"
         id="use6"
         transform="rotate(120,2.1166669,2.5362284)" />
    </g>
  </g>
</svg>
